# AST/ASF file generated using VICON BodyLanguage
# -----------------------------------------------
:version 1.10
:name VICON
:units
  mass 1.0
  length 0.45
  angle deg
:documentation
   .ast/.asf automatically generated from VICON data using
   VICON BodyBuilder and BodyLanguage model FoxedUp or BRILLIANT.MOD
:root
   order TX TY TZ RX RY RZ
   axis XYZ
   position 0 0 0  
   orientation 0 0 0 
:bonedata
  begin
     id 1 
     name lhipjoint
     direction 0.612567 -0.751349 0.245431 
     length 2.42285 
     axis 0 0 0  XYZ
  end
  begin
     id 2 
     name lfemur
     direction 0.34202 -0.939693 0  
     length 7.11304  
     axis 0 0 20  XYZ
    dof rx ry rz
    limits (-160.0 20.0)
           (-70.0 70.0)
           (-60.0 70.0)
  end
  begin
     id 3 
     name ltibia
     direction 0.34202 -0.939693 0   
     length 7.84529   
     axis 0 0 20   XYZ
    dof rx
    limits (-10.0 170.0)
  end
  begin
     id 4 
     name lfoot
     direction 0.0779239 -0.214094 0.9737   
     length 1.97176   
     axis -90 7.62852e-016 20   XYZ
    dof rx rz
    limits (-45.0 90.0)
           (-70.0 20.0)
  end
  begin
     id 5 
     name ltoes
     direction 1.53565e-011 -4.21709e-011 1   
     length 0.993197   
     axis -90 7.62852e-016 20   XYZ
    dof rx
    limits (-90.0 20.0)
  end
  begin
     id 6 
     name rhipjoint
     direction -0.665722 -0.709315 0.231701   
     length 2.56642  
     axis 0 0 0  XYZ 
  end
  begin
     id 7 
     name rfemur
     direction -0.34202 -0.939693 0   
     length 7.32108   
     axis 0 0 -20   XYZ
    dof rx ry rz
    limits (-160.0 20.0)
           (-70.0 70.0)
           (-70.0 60.0)
  end
  begin
     id 8 
     name rtibia
     direction -0.34202 -0.939693 0   
     length 7.81254   
     axis 0 0 -20   XYZ
    dof rx
    limits (-10.0 170.0)
 end
 begin
     id 9 
     name rfoot
     direction -0.0832806 -0.228812 0.969902   
     length 2.08278  
     axis -90 -7.62852e-016 -20   XYZ
    dof rx rz
    limits (-45.0 90.0)
           (-20.0 70.0)
  end
  begin
     id 10 
     name rtoes
     direction -1.53589e-011 -4.22086e-011 1   
     length 1.04609   
     axis -90 -7.62852e-016 -20   XYZ
    dof rx
    limits (-90.0 20.0)
  end
  begin
     id 11 
     name lowerback
     direction -0.00506013 0.988403 -0.151766   
     length 2.01978   
     axis 0 0 0   XYZ
    dof rx ry rz
    limits (-20.0 45.0)
           (-30.0 30.0)
           (-30.0 30.0)
  end
  begin
     id 12 
     name upperback
     direction -0.00836389 0.99968 0.0238859   
     length 2.01276   
     axis 0 0 0   XYZ
    dof rx ry rz
    limits (-20.0 45.0)
           (-30.0 30.0)
           (-30.0 30.0)
  end
  begin
     id 13 
     name thorax
     direction -0.00684136 0.995386 0.0957043   
     length 2.07303   
     axis 0 0 0   XYZ
    dof rx ry rz
    limits (-20.0 45.0)
           (-30.0 30.0)
           (-30.0 30.0)
  end
  begin
     id 14 
     name lowerneck
     direction -0.0161045 0.999661 0.0204485   
     length 1.91243   
     axis 0 0 0   XYZ
    dof rx ry rz
    limits (-20.0 45.0)
           (-30.0 30.0)
           (-30.0 30.0)
  end
  begin
     id 15 
     name upperneck
     direction 0.0553583 0.990946 -0.122319   
     length 1.91574   
     axis 0 0 0   XYZ
    dof rx ry rz
    limits (-20.0 45.0)
           (-30.0 30.0)
           (-30.0 30.0)
  end
  begin
     id 16
     name head
     direction 0.0180273 0.998839 -0.0446756  
     length 1.92693  
     axis 0 0 0   XYZ
    dof rx ry rz
    limits (-20.0 45.0)
           (-30.0 30.0)
           (-30.0 30.0)
  end
  begin
     id 17 
     name lclavicle
     direction 0.945646 0.319323 -0.0615358  
     length 4.0076  
     axis 0 0 0   XYZ
    dof ry rz
    limits (-20.0 10.0)
           (0.0 20.0)
  end
  begin
     id 18 
     name lhumerus
     direction 1 -4.48967e-011 -2.79996e-027   
     length 5.64147   
     axis 180 -30 -90   XYZ
    dof rx ry rz
    limits (-60.0 90.0)
           (-90.0 90.0)
           (-90.0 90.0)
  end
  begin
     id 19
     name lradius
     direction 1 -4.48976e-011 -9.5122e-027   
     length 2.86444   
     axis 180 -30 -90   XYZ
    dof rx
    limits (-10.0 170.0)
  end
  begin
     id 20
     name lwrist
     direction 1 -4.48983e-011 -1.24047e-026   
     length 1.43222   
     axis 9.05591e-015 90 90   XYZ
    dof ry
    limits (-180.0 0.0)
 end
  begin
     id 21 
     name lhand
     direction 1 -4.4892e-011 -2.48094e-026   
     length 0.722123   
     axis 1.58305e-014 90 90   XYZ
    dof rx rz
    limits (-90.0 90.0)
           (-45.0 45.0)
  end
  begin
     id 22 
     name lfingers
     direction 1 -4.48895e-011 -4.96187e-026   
     length 0.582194   
     axis 3.1661e-014 90 90   XYZ
    dof rx
    limits (0.0 90.0)
  end
  begin
     id 23
     name lthumb
     direction 0.707107 -6.34961e-011 0.707107   
     length 0.835918   
     axis -90 45 2.85299e-015   XYZ
    dof rx rz
    limits (-45.0 45.0)
           (-45.0 45.0)
  end
  begin
     id 24 
     name rclavicle
     direction -0.932635 0.324218 -0.15835   
     length 3.65819  
     axis 0 0 0   XYZ 
    dof ry rz
    limits (-10.0 20.0)
           (-20.0 0.0)
  end
  begin
     id 25 
     name rhumerus
     direction -1 -4.48965e-011 -4.02296e-027  
     length 5.44729   
     axis 180 30 90   XYZ
    dof rx ry rz
    limits (-90.0 60.0)
           (-90.0 90.0)
           (-90.0 90.0)
  end
  begin
     id 26 
     name rradius
     direction -1 -4.48957e-011 -8.81087e-027   
     length 3.08821   
     axis 180 30 90   XYZ
    dof rx
    limits (-10.0 170.0)
  end
  begin
     id 27 
     name rwrist
     direction -1 -4.49015e-011 -1.24047e-026   
     length 1.5441   
     axis 9.05591e-015 -90 -90   XYZ
    dof ry
    limits (-180.0 0.0)
  end
  begin
     id 28
     name rhand
     direction -1 -4.4891e-011 -2.48094e-026   
     length 0.821049   
     axis 1.58305e-014 -90 -90   XYZ
    dof rx rz
    limits (-90.0 90.0)
           (-45.0 45.0)
  end
  begin
     id 29
     name rfingers
     direction -1 -4.48985e-011 -4.96187e-026   
     length 0.661951   
     axis 3.1661e-014 -90 -90   XYZ
    dof rx
    limits (0.0 90.0)
  end
  begin
     id 30
     name rthumb
     direction -0.707107 -6.34906e-011 0.707107   
     length 0.950433   
     axis -90 -45 -2.85299e-015   XYZ
    dof rx rz
    limits (-45.0 45.0)
           (-45.0 45.0)
  end
:hierarchy
  begin
    root lhipjoint rhipjoint lowerback
    lhipjoint lfemur
    lfemur ltibia
    ltibia lfoot
    lfoot ltoes
    rhipjoint rfemur
    rfemur rtibia
    rtibia rfoot
    rfoot rtoes
    lowerback upperback
    upperback thorax
    thorax lowerneck lclavicle rclavicle
    lowerneck upperneck
    upperneck head
    lclavicle lhumerus
    lhumerus lradius
    lradius lwrist
    lwrist lhand lthumb
    lhand lfingers
    rclavicle rhumerus
    rhumerus rradius
    rradius rwrist
    rwrist rhand rthumb
    rhand rfingers
  end

#!OML:ASF F:\VICON\USERDATA\INSTALL\rory3\rory3.ASF
:FULLY-SPECIFIED
:DEGREES
605
root 3.09118 17.6845 0.545897 -60.5639 88.2099 -59.352
lowerback 6.67152 -0.246683 3.31019
upperback -3.02532 -0.0758737 -1.10429
thorax -6.92941 -0.211488 -3.01226
lowerneck -4.7533 -5.64836 -4.97616
upperneck 11.5846 -8.04751 8.34231
head 4.78905 -3.65415 2.91957
rclavicle -1.04362e-015 -8.74653e-015
rhumerus -36.4038 -34.7983 -26.5682
rradius 126.736
rwrist -43.0097
rhand -15.662 18.7802
rfingers 7.12502
rthumb 10.5262 -10.9363
lclavicle -1.04362e-015 -8.74653e-015
lhumerus -21.6891 35.7948 34.7105
lradius 122.285
lwrist 78.3425
lhand -3.97092 3.32242
lfingers 7.12502
lthumb 21.7819 32.1167
rfemur 1.63643 0.493931 21.019
rtibia 13.2986
rfoot -15.0709 -0.981868
rtoes -6.69241
lfemur 2.82616 1.09621 -13.9278
ltibia 9.82107
lfoot -11.8055 0.862077
ltoes -7.15063
606
root 3.09363 17.691 0.545935 -59.9713 88.2763 -58.7381
lowerback 6.66483 -0.243036 3.25605
upperback -3.01412 -0.078728 -1.13926
thorax -6.91358 -0.210837 -3.01809
lowerneck -4.76019 -5.64845 -4.97223
upperneck 11.6124 -8.05195 8.36698
head 4.79988 -3.65362 2.92595
rclavicle 2.11209e-015 2.38542e-015
rhumerus -36.415 -34.782 -26.5316
rradius 126.737
rwrist -43.0223
rhand -15.6313 18.7945
rfingers 7.12502
rthumb 10.5559 -10.9204
lclavicle 2.11209e-015 2.38542e-015
lhumerus -21.5271 35.8655 34.7296
lradius 122.295
lwrist 78.2981
lhand -3.88241 3.52219
lfingers 7.12502
lthumb 21.8669 32.3066
rfemur 1.59518 0.485503 20.9296
rtibia 13.3693
rfoot -15.0859 -1.01781
rtoes -6.71703
lfemur 2.93717 1.07999 -14.0063
ltibia 9.66609
lfoot -11.7602 0.854604
ltoes -7.00772
607
root 3.09221 17.6907 0.546467 -60.2906 88.2451 -59.0852
lowerback 6.64155 -0.2391 3.28769
upperback -3.019 -0.0709809 -1.13819
thorax -6.90497 -0.208304 -3.03572
lowerneck -4.79863 -5.64093 -4.95073
upperneck 11.664 -8.04163 8.33283
head 4.81925 -3.64743 2.91127
rclavicle -2.98177e-016 -4.37326e-015
rhumerus -36.3601 -34.7655 -26.5753
rradius 126.703
rwrist -43.0035
rhand -15.6442 18.8454
rfingers 7.12502
rthumb 10.5434 -10.8702
lclavicle -2.98177e-016 -4.37326e-015
lhumerus -21.4103 35.9429 34.735
lradius 122.303
lwrist 78.2764
lhand -3.82532 3.54814
lfingers 7.12502
lthumb 21.9217 32.3261
rfemur 1.54364 0.495952 20.965
rtibia 13.3991
rfoot -15.0883 -1.02002
rtoes -7.21176
lfemur 2.93653 1.09087 -13.9677
ltibia 9.59626
lfoot -11.7578 0.839516
ltoes -6.81592
608
root 3.08905 17.6835 0.546711 -60.6893 88.2138 -59.5038
lowerback 6.64976 -0.24787 3.30809
upperback -3.04271 -0.0793018 -1.12609
thorax -6.93575 -0.21389 -3.03363
lowerneck -4.77784 -5.62173 -4.92067
upperneck 11.6856 -8.01333 8.27872
head 4.81696 -3.63536 2.89212
rclavicle 4.07509e-015 1.07344e-014
rhumerus -36.2708 -34.6971 -26.655
rradius 126.659
rwrist -42.9846
rhand -15.7016 18.9011
rfingers 7.12502
rthumb 10.4881 -10.8173
lclavicle 4.07509e-015 1.07344e-014
lhumerus -21.4069 35.9718 34.6477
lradius 122.32
lwrist 78.3858
lhand -3.86934 3.49153
lfingers 7.12502
lthumb 21.8794 32.2745
rfemur 1.57747 0.470578 21.0073
rtibia 13.3491
rfoot -15.1042 -0.926229
rtoes -7.62193
lfemur 2.84719 1.09849 -13.9228
ltibia 9.70292
lfoot -11.8095 0.803015
ltoes -6.32455
609
root 3.08827 17.6795 0.54677 -60.6773 88.2125 -59.4829
lowerback 6.65554 -0.251447 3.31967
upperback -3.04577 -0.0833384 -1.13549
thorax -6.94282 -0.216815 -3.04963
lowerneck -4.78328 -5.60557 -4.90068
upperneck 11.7175 -7.99331 8.2685
head 4.82505 -3.62421 2.88682
rclavicle -4.07509e-015 1.47101e-014
rhumerus -36.2099 -34.6669 -26.717
rradius 126.633
rwrist -42.973
rhand -15.7124 18.8976
rfingers 7.12502
rthumb 10.4776 -10.8213
lclavicle -4.07509e-015 1.47101e-014
lhumerus -21.3682 36.0243 34.6037
lradius 122.341
lwrist 78.4462
lhand -3.85783 3.48665
lfingers 7.12502
lthumb 21.8905 32.2683
rfemur 1.67086 0.469536 21.0079
rtibia 13.2255
rfoot -15.0621 -0.818724
rtoes -7.15789
lfemur 2.69584 1.10061 -13.9196
ltibia 10.008
lfoot -11.9506 0.738526
ltoes -6.17629
610
root 3.08695 17.6785 0.547468 -60.8941 88.1775 -59.7015
lowerback 6.67223 -0.256166 3.32745
upperback -3.05319 -0.0867754 -1.11166
thorax -6.96058 -0.218722 -3.0286
lowerneck -4.81278 -5.59718 -4.88527
upperneck 11.7666 -7.97807 8.20553
head 4.84091 -3.61801 2.8648
rclavicle 3.08116e-015 7.95139e-016
rhumerus -36.1442 -34.6518 -26.7409
rradius 126.609
rwrist -43.0165
rhand -15.6376 18.8518
rfingers 7.12502
rthumb 10.5498 -10.8634
lclavicle 3.08116e-015 7.95139e-016
lhumerus -21.3689 36.1313 34.5663
lradius 122.377
lwrist 78.5268
lhand -3.83301 3.52334
lfingers 7.12502
lthumb 21.9143 32.3022
rfemur 1.71759 0.50326 21.0596
rtibia 13.1219
rfoot -14.9957 -0.895009
rtoes -7.15802
lfemur 2.5515 1.10214 -13.8793
ltibia 10.2644
lfoot -12.0474 0.739516
ltoes -6.5366
611
root 3.08541 17.6777 0.547518 -61.8673 88.1209 -60.6874
lowerback 6.65883 -0.251187 3.39274
upperback -3.05569 -0.0733385 -1.09706
thorax -6.95488 -0.21466 -3.05171
lowerneck -4.80836 -5.60866 -4.90983
upperneck 11.7699 -7.99339 8.21894
head 4.84374 -3.62583 2.87195
rclavicle 3.90115e-015 6.36111e-015
rhumerus -36.1525 -34.6351 -26.7331
rradius 126.625
rwrist -43.0939
rhand -15.5138 18.8205
rfingers 7.12502
rthumb 10.6692 -10.8886
lclavicle 3.90115e-015 6.36111e-015
lhumerus -21.3309 36.1792 34.5592
lradius 122.409
lwrist 78.578
lhand -3.81156 3.50821
lfingers 7.12502
lthumb 21.9349 32.2847
rfemur 1.72069 0.465432 21.1385
rtibia 13.0797
rfoot -14.9705 -0.985686
rtoes -7.86324
lfemur 2.4806 1.10979 -13.8041
ltibia 10.3546
lfoot -12.061 0.741204
ltoes -6.71279
612
root 3.08468 17.6781 0.547729 -62.3883 88.1312 -61.217
lowerback 6.61402 -0.25244 3.40879
upperback -3.03832 -0.0758889 -1.10706
thorax -6.91086 -0.215781 -3.07066
lowerneck -4.80438 -5.61344 -4.94888
upperneck 11.7588 -8.00151 8.26627
head 4.84367 -3.6291 2.89251
rclavicle 2.38542e-015 2.78299e-015
rhumerus -36.1245 -34.6256 -26.7706
rradius 126.631
rwrist -43.157
rhand -15.4503 18.8121
rfingers 7.12502
rthumb 10.7304 -10.8938
lclavicle 2.38542e-015 2.78299e-015
lhumerus -21.2926 36.1755 34.5675
lradius 122.43
lwrist 78.4948
lhand -3.84478 3.41316
lfingers 7.12502
lthumb 21.903 32.1934
rfemur 1.73332 0.493149 21.1379
rtibia 13.0398
rfoot -14.9694 -0.98348
rtoes -7.73009
lfemur 2.4223 1.17774 -13.7965
ltibia 10.4192
lfoot -12.0493 0.680025
ltoes -6.99696
613
root 3.08437 17.6787 0.547633 -62.0182 88.162 -60.8363
lowerback 6.6014 -0.252439 3.39093
upperback -3.02721 -0.0794091 -1.12652
thorax -6.89197 -0.216662 -3.08052
lowerneck -4.80978 -5.61706 -4.88977
upperneck 11.7643 -8.00213 8.18267
head 4.84063 -3.6316 2.85685
rclavicle -1.3418e-015 1.98785e-015
rhumerus -36.0893 -34.5901 -26.8126
rradius 126.587
rwrist -43.1407
rhand -15.3401 18.919
rfingers 7.12502
rthumb 10.8367 -10.7814
lclavicle -1.3418e-015 1.98785e-015
lhumerus -21.2766 36.137 34.5528
lradius 122.448
lwrist 78.4058
lhand -3.92386 3.32409
lfingers 7.12502
lthumb 21.8271 32.1131
rfemur 1.75299 0.528706 21.0953
rtibia 13.0215
rfoot -14.9902 -0.920365
rtoes -6.98697
lfemur 2.42136 1.15562 -13.8331
ltibia 10.45
lfoot -12.1044 0.661803
ltoes -6.74662
614
root 3.08379 17.6797 0.547187 -62.0715 88.1263 -60.9003
lowerback 6.60691 -0.254874 3.43558
upperback -3.036 -0.0780555 -1.12581
thorax -6.90476 -0.218377 -3.10524
lowerneck -4.82333 -5.61696 -4.85606
upperneck 11.7752 -8.00082 8.14396
head 4.84333 -3.63123 2.83907
rclavicle 1.31695e-015 -9.93923e-015
rhumerus -36.0496 -34.4978 -26.8696
rradius 126.575
rwrist -43.1718
rhand -15.2769 19.0116
rfingers 7.12502
rthumb 10.8976 -10.6856
lclavicle 1.31695e-015 -9.93923e-015
lhumerus -21.2394 36.1441 34.5614
lradius 122.427
lwrist 78.3991
lhand -3.95125 3.26887
lfingers 7.12502
lthumb 21.8008 32.061
rfemur 1.73331 0.522963 21.1345
rtibia 13.0262
rfoot -14.9803 -0.930945
rtoes -6.92937
lfemur 2.42746 1.1185 -13.8049
ltibia 10.4365
lfoot -12.1373 0.749107
ltoes -6.85488
615
root 3.08397 17.6807 0.546513 -62.4429 88.1326 -61.2722
lowerback 6.61453 -0.270979 3.44968
upperback -3.03856 -0.0977478 -1.12195
thorax -6.91358 -0.228826 -3.10673
lowerneck -4.78062 -5.60216 -4.86157
upperneck 11.7132 -7.9771 8.13671
head 4.81538 -3.623 2.84089
rclavicle -1.59028e-015 -1.70955e-014
rhumerus -35.9803 -34.3501 -26.9409
rradius 126.541
rwrist -43.224
rhand -15.3217 19.0726
rfingers 7.12502
rthumb 10.8545 -10.6269
lclavicle -1.59028e-015 -1.70955e-014
lhumerus -21.2388 36.2033 34.5603
lradius 122.392
lwrist 78.4326
lhand -3.84892 3.2135
lfingers 7.12502
lthumb 21.899 31.9942
rfemur 1.72587 0.481125 21.1386
rtibia 13.0365
rfoot -14.9738 -1.00114
rtoes -7.68911
lfemur 2.44121 1.12958 -13.8079
ltibia 10.4122
lfoot -12.1241 0.774493
ltoes -7.06163
